
<svg xmlns="http://www.w3.org/2000/svg" viewBox="0 0 1280 900">
  <defs>
    <filter id="softShadow" x="-20%" y="-20%" width="140%" height="140%"><feDropShadow dx="0" dy="14" stdDeviation="14" flood-color="#b59b74" flood-opacity="0.14"/></filter>
    <linearGradient id="paper" x1="0" x2="1" y1="0" y2="1"><stop stop-color="#fbf8f1"/><stop offset="1" stop-color="#efe8dc"/></linearGradient>
  </defs>
  <rect width="100%" height="100%" fill="url(#paper)"/>
  <g filter="url(#softShadow)">
    <rect x="42" y="42" width="1196" height="816" rx="28" fill="#fffdfa" stroke="#d9cfbe" stroke-width="2"/>
    <text x="84" y="96" font-family="Georgia, 'Times New Roman', serif" font-size="34" fill="#70552f">Penthouse Signature</text>
    <text x="84" y="128" font-family="Arial, Helvetica, sans-serif" font-size="15" letter-spacing="2" fill="#9c835f">PROFESJONALNY RZUT 2D · 121 m² · 5 pokoi</text>

    <g transform="translate(1048 74)">
      <circle cx="34" cy="34" r="34" fill="#f6efe2" stroke="#d9cfbe"/>
      <path d="M34 12 L40 32 L34 28 L28 32 Z" fill="#29251f"/>
      <text x="34" y="61" text-anchor="middle" font-family="Arial, Helvetica, sans-serif" font-size="11" fill="#7b6a56">N</text>
    </g>

    <rect x="120" y="126" width="884.6153846153846" height="58" rx="18" fill="#e8eee5" stroke="#a8b39f" stroke-width="2"/>
    <text x="562.3076923076924" y="163" text-anchor="middle" font-family="Arial, Helvetica, sans-serif" font-size="24" font-weight="500" fill="#536153">TARAS PANORAMICZNY · 38.7 m²</text>

    
      <g>
        <rect x="120" y="190" width="451.92307692307696" height="288.46153846153845" fill="#f7f3eb" stroke="#23201c" stroke-width="6"/>
        <rect x="148" y="368.46153846153845" width="130" height="72" rx="22" fill="#d8cebf"/>
<rect x="300" y="393.46153846153845" width="88" height="52" rx="12" fill="#e8dfd0"/>
<circle cx="405.96153846153845" cy="278" r="38" fill="#ebe2d3"/>
<rect x="439.9230769230769" y="216" width="104" height="24" rx="10" fill="#cbd7cd"/>
        <text x="345.96153846153845" y="330.2307692307692" text-anchor="middle" font-family="Arial, Helvetica, sans-serif" font-size="28" font-weight="700" fill="#2f2a24">SALON + KUCHNIA</text>
        <text x="345.96153846153845" y="364.2307692307692" text-anchor="middle" font-family="Arial, Helvetica, sans-serif" font-size="18" font-weight="400" fill="#6f675c">42.6 m²</text>
      </g>

      <g>
        <rect x="571.9230769230769" y="190" width="182.6923076923077" height="182.6923076923077" fill="#f1ede5" stroke="#23201c" stroke-width="6"/>
        <rect x="603.9230769230769" y="228" width="116" height="78" rx="12" fill="#ddd5ca"/>
<rect x="603.9230769230769" y="228" width="116" height="20" rx="10" fill="#c6bbb0"/>
        <text x="663.2692307692307" y="277.34615384615387" text-anchor="middle" font-family="Arial, Helvetica, sans-serif" font-size="16.60839160839161" font-weight="700" fill="#2f2a24">MASTER</text>
        <text x="663.2692307692307" y="311.34615384615387" text-anchor="middle" font-family="Arial, Helvetica, sans-serif" font-size="18" font-weight="400" fill="#6f675c">18.2 m²</text>
      </g>

      <g>
        <rect x="754.6153846153846" y="190" width="125" height="182.6923076923077" fill="#f1ede5" stroke="#23201c" stroke-width="6"/>
        <rect x="790.6153846153846" y="276.69230769230774" width="53" height="58" rx="10" fill="#d4cabd"/>
<rect x="821.6153846153846" y="228" width="24" height="84" rx="10" fill="#d8d1c8"/>
        <text x="817.1153846153846" y="277.34615384615387" text-anchor="middle" font-family="Arial, Helvetica, sans-serif" font-size="16" font-weight="700" fill="#2f2a24">POKÓJ</text>
        <text x="817.1153846153846" y="311.34615384615387" text-anchor="middle" font-family="Arial, Helvetica, sans-serif" font-size="18" font-weight="400" fill="#6f675c">12.2 m²</text>
      </g>

      <g>
        <rect x="879.6153846153846" y="190" width="125" height="182.6923076923077" fill="#f1ede5" stroke="#23201c" stroke-width="6"/>
        <rect x="911.6153846153846" y="228" width="61" height="78" rx="12" fill="#ddd5ca"/>
<rect x="911.6153846153846" y="228" width="61" height="20" rx="10" fill="#c6bbb0"/>
        <text x="942.1153846153846" y="277.34615384615387" text-anchor="middle" font-family="Arial, Helvetica, sans-serif" font-size="16" font-weight="700" fill="#2f2a24">POKÓJ</text>
        <text x="942.1153846153846" y="311.34615384615387" text-anchor="middle" font-family="Arial, Helvetica, sans-serif" font-size="18" font-weight="400" fill="#6f675c">11.1 m²</text>
      </g>

      <g>
        <rect x="571.9230769230769" y="372.69230769230774" width="182.6923076923077" height="153.84615384615384" fill="#edf3ef" stroke="#23201c" stroke-width="6"/>
        <rect x="619.2692307692307" y="456.53846153846155" width="88" height="40" rx="16" fill="#cdd8d4"/>
<rect x="684.6153846153846" y="398.69230769230774" width="28" height="84" rx="12" fill="#e0e7e5" stroke="#99a9a4" stroke-width="2"/>
        <text x="663.2692307692307" y="445.61538461538464" text-anchor="middle" font-family="Arial, Helvetica, sans-serif" font-size="16.60839160839161" font-weight="700" fill="#2f2a24">ŁAZIENKA</text>
        <text x="663.2692307692307" y="479.61538461538464" text-anchor="middle" font-family="Arial, Helvetica, sans-serif" font-size="18" font-weight="400" fill="#6f675c">8.4 m²</text>
      </g>

      <g>
        <rect x="754.6153846153846" y="372.69230769230774" width="125" height="153.84615384615384" fill="#f1ede5" stroke="#23201c" stroke-width="6"/>
        <rect x="786.6153846153846" y="410.69230769230774" width="61" height="69.84615384615384" rx="12" fill="#ddd5ca"/>
<rect x="786.6153846153846" y="410.69230769230774" width="61" height="20" rx="10" fill="#c6bbb0"/>
        <text x="817.1153846153846" y="445.61538461538464" text-anchor="middle" font-family="Arial, Helvetica, sans-serif" font-size="16" font-weight="700" fill="#2f2a24">POKÓJ</text>
        <text x="817.1153846153846" y="479.61538461538464" text-anchor="middle" font-family="Arial, Helvetica, sans-serif" font-size="18" font-weight="400" fill="#6f675c">10 m²</text>
      </g>

      <g>
        <rect x="879.6153846153846" y="372.69230769230774" width="125" height="76.92307692307692" fill="#edf3ef" stroke="#23201c" stroke-width="6"/>
        <rect x="910.1153846153846" y="389.1538461538462" width="64" height="44" rx="16" fill="#d7e2de"/>
        <text x="942.1153846153846" y="407.1538461538462" text-anchor="middle" font-family="Arial, Helvetica, sans-serif" font-size="16" font-weight="700" fill="#2f2a24">WC</text>
        <text x="942.1153846153846" y="441.1538461538462" text-anchor="middle" font-family="Arial, Helvetica, sans-serif" font-size="18" font-weight="400" fill="#6f675c">2.2 m²</text>
      </g>

      <g>
        <rect x="879.6153846153846" y="449.61538461538464" width="125" height="76.92307692307692" fill="#f5f0e8" stroke="#23201c" stroke-width="6"/>
        <rect x="907.6153846153846" y="479.61538461538464" width="69" height="20" rx="10" fill="#ddd5ca"/>
<rect x="907.6153846153846" y="511.61538461538464" width="69" height="20" rx="10" fill="#e7ded1"/>
        <text x="942.1153846153846" y="484.0769230769231" text-anchor="middle" font-family="Arial, Helvetica, sans-serif" font-size="16" font-weight="700" fill="#2f2a24">HOL</text>
        <text x="942.1153846153846" y="518.0769230769231" text-anchor="middle" font-family="Arial, Helvetica, sans-serif" font-size="18" font-weight="400" fill="#6f675c">7.3 m²</text>
      </g>

      <g>
        <rect x="120" y="478.46153846153845" width="451.92307692307696" height="211.53846153846155" fill="#f7f3eb" stroke="#23201c" stroke-width="6"/>
        <rect x="265.96153846153845" y="556.2307692307693" width="160" height="56" rx="16" fill="#d8cebf"/>
<circle cx="249.96153846153845" cy="554.2307692307693" r="12" fill="#e7ded1"/><circle cx="441.96153846153845" cy="554.2307692307693" r="12" fill="#e7ded1"/><circle cx="249.96153846153845" cy="614.2307692307693" r="12" fill="#e7ded1"/><circle cx="441.96153846153845" cy="614.2307692307693" r="12" fill="#e7ded1"/>
        <text x="345.96153846153845" y="580.2307692307693" text-anchor="middle" font-family="Arial, Helvetica, sans-serif" font-size="28" font-weight="700" fill="#2f2a24">JADALNIA</text>
        <text x="345.96153846153845" y="614.2307692307693" text-anchor="middle" font-family="Arial, Helvetica, sans-serif" font-size="18" font-weight="400" fill="#6f675c">9 m²</text>
      </g>

      <g>
        <rect x="571.9230769230769" y="526.5384615384615" width="432.6923076923077" height="163.46153846153845" fill="#f5f0e8" stroke="#23201c" stroke-width="6"/>
        <rect x="599.9230769230769" y="556.5384615384615" width="124" height="20" rx="10" fill="#ddd5ca"/>
<rect x="599.9230769230769" y="588.5384615384615" width="124" height="20" rx="10" fill="#e7ded1"/>
        <text x="788.2692307692307" y="604.2692307692307" text-anchor="middle" font-family="Arial, Helvetica, sans-serif" font-size="28" font-weight="700" fill="#2f2a24">GARDEROBA</text>
        <text x="788.2692307692307" y="638.2692307692307" text-anchor="middle" font-family="Arial, Helvetica, sans-serif" font-size="18" font-weight="400" fill="#6f675c">4.4 m²</text>
      </g>

    <line x1="120" y1="720" x2="1004.6153846153846" y2="720" stroke="#a89579" stroke-width="2" stroke-dasharray="6 6"/>
    <line x1="120" y1="714" x2="120" y2="726" stroke="#a89579" stroke-width="2"/>
    <line x1="1004.6153846153846" y1="714" x2="1004.6153846153846" y2="726" stroke="#a89579" stroke-width="2"/>
    <text x="562.3076923076924" y="712" text-anchor="middle" font-family="Arial, Helvetica, sans-serif" font-size="16" fill="#8e7552">elewacja frontowa</text>

    <line x1="1110" y1="190" x2="1110" y2="690" stroke="#a89579" stroke-width="2" stroke-dasharray="6 6"/>
    <line x1="1110" y1="184" x2="1110" y2="196" stroke="#a89579" stroke-width="2"/>
    <line x1="1110" y1="684" x2="1110" y2="696" stroke="#a89579" stroke-width="2"/>
    <text x="1128" y="440" dominant-baseline="middle" font-family="Arial, Helvetica, sans-serif" font-size="16" fill="#8e7552">układ funkcjonalny</text>

    
    <g transform="translate(92 782)">
      <rect width="170" height="32" rx="16" fill="#1f1f1d"/>
      <circle cx="18" cy="16" r="5" fill="#8aa070"/>
      <text x="32" y="21" font-family="Arial, Helvetica, sans-serif" font-size="13" fill="#f2ede4">strefa dzienna</text>
    </g>
  

    <g transform="translate(288 782)">
      <rect width="170" height="32" rx="16" fill="#1f1f1d"/>
      <circle cx="18" cy="16" r="5" fill="#c9b287"/>
      <text x="32" y="21" font-family="Arial, Helvetica, sans-serif" font-size="13" fill="#f2ede4">strefa prywatna</text>
    </g>
  

    <g transform="translate(484 782)">
      <rect width="170" height="32" rx="16" fill="#1f1f1d"/>
      <circle cx="18" cy="16" r="5" fill="#b4c5be"/>
      <text x="32" y="21" font-family="Arial, Helvetica, sans-serif" font-size="13" fill="#f2ede4">łazienka / komunikacja</text>
    </g>
  
  </g>
</svg>