
<svg xmlns="http://www.w3.org/2000/svg" viewBox="0 0 1280 900">
  <defs>
    <filter id="softShadow" x="-20%" y="-20%" width="140%" height="140%"><feDropShadow dx="0" dy="14" stdDeviation="14" flood-color="#b59b74" flood-opacity="0.14"/></filter>
    <linearGradient id="paper" x1="0" x2="1" y1="0" y2="1"><stop stop-color="#fbf8f1"/><stop offset="1" stop-color="#efe8dc"/></linearGradient>
  </defs>
  <rect width="100%" height="100%" fill="url(#paper)"/>
  <g filter="url(#softShadow)">
    <rect x="42" y="42" width="1196" height="816" rx="28" fill="#fffdfa" stroke="#d9cfbe" stroke-width="2"/>
    <text x="84" y="96" font-family="Georgia, 'Times New Roman', serif" font-size="34" fill="#70552f">Premium Light</text>
    <text x="84" y="128" font-family="Arial, Helvetica, sans-serif" font-size="15" letter-spacing="2" fill="#9c835f">PROFESJONALNY RZUT 2D · 67 m² · 3 pokoje</text>

    <g transform="translate(1048 74)">
      <circle cx="34" cy="34" r="34" fill="#f6efe2" stroke="#d9cfbe"/>
      <path d="M34 12 L40 32 L34 28 L28 32 Z" fill="#29251f"/>
      <text x="34" y="61" text-anchor="middle" font-family="Arial, Helvetica, sans-serif" font-size="11" fill="#7b6a56">N</text>
    </g>

    <rect x="120" y="126" width="841.4634146341464" height="58" rx="18" fill="#e8eee5" stroke="#a8b39f" stroke-width="2"/>
    <text x="540.7317073170732" y="163" text-anchor="middle" font-family="Arial, Helvetica, sans-serif" font-size="24" font-weight="500" fill="#536153">TARAS · 15.6 m²</text>

    
      <g>
        <rect x="120" y="190" width="451.2195121951219" height="304.8780487804878" fill="#f7f3eb" stroke="#23201c" stroke-width="6"/>
        <rect x="148" y="384.8780487804878" width="130" height="72" rx="22" fill="#d8cebf"/>
<rect x="300" y="409.8780487804878" width="88" height="52" rx="12" fill="#e8dfd0"/>
<circle cx="405.609756097561" cy="278" r="38" fill="#ebe2d3"/>
<rect x="439.219512195122" y="216" width="104" height="24" rx="10" fill="#cbd7cd"/>
        <text x="345.609756097561" y="338.4390243902439" text-anchor="middle" font-family="Arial, Helvetica, sans-serif" font-size="28" font-weight="700" fill="#2f2a24">SALON + KUCHNIA</text>
        <text x="345.609756097561" y="372.4390243902439" text-anchor="middle" font-family="Arial, Helvetica, sans-serif" font-size="18" font-weight="400" fill="#6f675c">28.6 m²</text>
      </g>

      <g>
        <rect x="571.219512195122" y="190" width="207.3170731707317" height="219.5121951219512" fill="#f1ede5" stroke="#23201c" stroke-width="6"/>
        <rect x="603.219512195122" y="228" width="116" height="78" rx="12" fill="#ddd5ca"/>
<rect x="603.219512195122" y="228" width="116" height="20" rx="10" fill="#c6bbb0"/>
        <text x="674.8780487804878" y="295.7560975609756" text-anchor="middle" font-family="Arial, Helvetica, sans-serif" font-size="18.8470066518847" font-weight="700" fill="#2f2a24">MASTER</text>
        <text x="674.8780487804878" y="329.7560975609756" text-anchor="middle" font-family="Arial, Helvetica, sans-serif" font-size="18" font-weight="400" fill="#6f675c">13.2 m²</text>
      </g>

      <g>
        <rect x="778.5365853658536" y="190" width="182.9268292682927" height="219.5121951219512" fill="#f1ede5" stroke="#23201c" stroke-width="6"/>
        <rect x="814.5365853658536" y="313.5121951219512" width="98" height="58" rx="10" fill="#d4cabd"/>
<rect x="903.4634146341464" y="228" width="24" height="84" rx="10" fill="#d8d1c8"/>
        <text x="870" y="295.7560975609756" text-anchor="middle" font-family="Arial, Helvetica, sans-serif" font-size="16.62971175166297" font-weight="700" fill="#2f2a24">GABINET</text>
        <text x="870" y="329.7560975609756" text-anchor="middle" font-family="Arial, Helvetica, sans-serif" font-size="18" font-weight="400" fill="#6f675c">10.5 m²</text>
      </g>

      <g>
        <rect x="571.219512195122" y="409.5121951219512" width="195.1219512195122" height="146.34146341463415" fill="#edf3ef" stroke="#23201c" stroke-width="6"/>
        <rect x="624.780487804878" y="485.8536585365854" width="88" height="40" rx="16" fill="#cdd8d4"/>
<rect x="696.3414634146342" y="435.5121951219512" width="28" height="84" rx="12" fill="#e0e7e5" stroke="#99a9a4" stroke-width="2"/>
        <text x="668.780487804878" y="478.6829268292683" text-anchor="middle" font-family="Arial, Helvetica, sans-serif" font-size="17.738359201773836" font-weight="700" fill="#2f2a24">ŁAZIENKA</text>
        <text x="668.780487804878" y="512.6829268292684" text-anchor="middle" font-family="Arial, Helvetica, sans-serif" font-size="18" font-weight="400" fill="#6f675c">5.8 m²</text>
      </g>

      <g>
        <rect x="766.3414634146342" y="409.5121951219512" width="85.36585365853658" height="146.34146341463415" fill="#edf3ef" stroke="#23201c" stroke-width="6"/>
        <rect x="777.0243902439024" y="460.6829268292683" width="64" height="44" rx="16" fill="#d7e2de"/>
        <text x="809.0243902439024" y="478.6829268292683" text-anchor="middle" font-family="Arial, Helvetica, sans-serif" font-size="16" font-weight="700" fill="#2f2a24">WC</text>
        <text x="809.0243902439024" y="512.6829268292684" text-anchor="middle" font-family="Arial, Helvetica, sans-serif" font-size="18" font-weight="400" fill="#6f675c">2.1 m²</text>
      </g>

      <g>
        <rect x="851.7073170731708" y="409.5121951219512" width="109.7560975609756" height="146.34146341463415" fill="#f5f0e8" stroke="#23201c" stroke-width="6"/>
        <rect x="879.7073170731708" y="439.5121951219512" width="53.756097560975604" height="20" rx="10" fill="#ddd5ca"/>
<rect x="879.7073170731708" y="471.5121951219512" width="53.756097560975604" height="20" rx="10" fill="#e7ded1"/>
        <text x="906.5853658536586" y="478.6829268292683" text-anchor="middle" font-family="Arial, Helvetica, sans-serif" font-size="16" font-weight="700" fill="#2f2a24">HOL</text>
        <text x="906.5853658536586" y="512.6829268292684" text-anchor="middle" font-family="Arial, Helvetica, sans-serif" font-size="18" font-weight="400" fill="#6f675c">6.8 m²</text>
      </g>

      <g>
        <rect x="120" y="494.8780487804878" width="451.2195121951219" height="195.1219512195122" fill="#f7f3eb" stroke="#23201c" stroke-width="6"/>
        <rect x="265.609756097561" y="564.439024390244" width="160" height="56" rx="16" fill="#d8cebf"/>
<circle cx="249.609756097561" cy="562.439024390244" r="12" fill="#e7ded1"/><circle cx="441.609756097561" cy="562.439024390244" r="12" fill="#e7ded1"/><circle cx="249.609756097561" cy="622.439024390244" r="12" fill="#e7ded1"/><circle cx="441.609756097561" cy="622.439024390244" r="12" fill="#e7ded1"/>
        <text x="345.609756097561" y="588.439024390244" text-anchor="middle" font-family="Arial, Helvetica, sans-serif" font-size="28" font-weight="700" fill="#2f2a24">JADALNIA</text>
        <text x="345.609756097561" y="622.439024390244" text-anchor="middle" font-family="Arial, Helvetica, sans-serif" font-size="18" font-weight="400" fill="#6f675c">7 m²</text>
      </g>

    <line x1="120" y1="720" x2="961.4634146341464" y2="720" stroke="#a89579" stroke-width="2" stroke-dasharray="6 6"/>
    <line x1="120" y1="714" x2="120" y2="726" stroke="#a89579" stroke-width="2"/>
    <line x1="961.4634146341464" y1="714" x2="961.4634146341464" y2="726" stroke="#a89579" stroke-width="2"/>
    <text x="540.7317073170732" y="712" text-anchor="middle" font-family="Arial, Helvetica, sans-serif" font-size="16" fill="#8e7552">elewacja frontowa</text>

    <line x1="1110" y1="190" x2="1110" y2="690" stroke="#a89579" stroke-width="2" stroke-dasharray="6 6"/>
    <line x1="1110" y1="184" x2="1110" y2="196" stroke="#a89579" stroke-width="2"/>
    <line x1="1110" y1="684" x2="1110" y2="696" stroke="#a89579" stroke-width="2"/>
    <text x="1128" y="440" dominant-baseline="middle" font-family="Arial, Helvetica, sans-serif" font-size="16" fill="#8e7552">układ funkcjonalny</text>

    
    <g transform="translate(92 782)">
      <rect width="170" height="32" rx="16" fill="#1f1f1d"/>
      <circle cx="18" cy="16" r="5" fill="#8aa070"/>
      <text x="32" y="21" font-family="Arial, Helvetica, sans-serif" font-size="13" fill="#f2ede4">strefa dzienna</text>
    </g>
  

    <g transform="translate(288 782)">
      <rect width="170" height="32" rx="16" fill="#1f1f1d"/>
      <circle cx="18" cy="16" r="5" fill="#c9b287"/>
      <text x="32" y="21" font-family="Arial, Helvetica, sans-serif" font-size="13" fill="#f2ede4">strefa prywatna</text>
    </g>
  

    <g transform="translate(484 782)">
      <rect width="170" height="32" rx="16" fill="#1f1f1d"/>
      <circle cx="18" cy="16" r="5" fill="#b4c5be"/>
      <text x="32" y="21" font-family="Arial, Helvetica, sans-serif" font-size="13" fill="#f2ede4">łazienka / komunikacja</text>
    </g>
  
  </g>
</svg>