
<svg xmlns="http://www.w3.org/2000/svg" viewBox="0 0 1000 700">
  <defs>
    <linearGradient id="bg" x1="0" x2="1" y1="0" y2="1"><stop stop-color="#1d1f1f"/><stop offset="1" stop-color="#34312d"/></linearGradient>
    <linearGradient id="glow" x1="0" x2="1"><stop stop-color="#d3a862" stop-opacity="0.0"/><stop offset="0.5" stop-color="#d3a862" stop-opacity="0.18"/><stop offset="1" stop-color="#d3a862" stop-opacity="0.0"/></linearGradient>
    <filter id="shadow"><feDropShadow dx="0" dy="24" stdDeviation="18" flood-opacity="0.3"/></filter>
  </defs>
  <rect width="100%" height="100%" fill="url(#bg)"/>
  <rect x="0" y="0" width="1000" height="700" fill="url(#glow)"/>
  <g filter="url(#shadow)">
    <path d="M220 542 L500 382 L790 520 L510 670 Z" fill="#ece4d8" stroke="#faf6ef" stroke-width="18" stroke-linejoin="round"/>
    
      <g>
        <polygon points="297.23199999999997,240.608 489.32800000000003,349.18399999999997 489.32800000000003,403.18399999999997 297.23199999999997,294.608" fill="#b7bdb4" stroke="#5b544b" stroke-width="2.8"/>
        <polygon points="692.096,234.57600000000002 489.32800000000003,349.18399999999997 489.32800000000003,403.18399999999997 692.096,288.576" fill="#a1a69e" stroke="#5b544b" stroke-width="2.8"/>
        <polygon points="500,126 692.096,234.57600000000002 489.32800000000003,349.18399999999997 297.23199999999997,240.608" fill="#dfe7dc" stroke="#56514a" stroke-width="3"/>
        <polygon points="454,177.04 514.72,211.36 466.88,238.39999999999998 406.15999999999997,204.07999999999998" fill="#7b7266"/>
        <text x="494.664" y="233.59199999999998" text-anchor="middle" font-family="Arial" font-size="18" font-weight="700" fill="#332c23">SALON + KUCHNIA</text>
      </g>
      <g>
        <polygon points="574.704,300.928 702.768,373.312 702.768,427.312 574.704,354.928" fill="#b7b0a6" stroke="#5b544b" stroke-width="2.8"/>
        <polygon points="820.1600000000001,306.96000000000004 702.768,373.312 702.768,427.312 820.1600000000001,360.96000000000004" fill="#a19b92" stroke="#5b544b" stroke-width="2.8"/>
        <polygon points="692.096,234.57600000000002 820.1600000000001,306.96000000000004 702.768,373.312 574.704,300.928" fill="#dfd7cb" stroke="#56514a" stroke-width="3"/>
        <polygon points="684.736,272.096 752.816,310.576 701.2959999999999,339.69599999999997 633.216,301.216" fill="#bfb3a1"/>
        <text x="697.432" y="299.94399999999996" text-anchor="middle" font-family="Arial" font-size="14" font-weight="700" fill="#332c23">SYPIALNIA</text>
      </g>
      <g>
        <polygon points="489.32800000000003,349.18399999999997 617.392,421.568 617.392,475.568 489.32800000000003,403.18399999999997" fill="#a5b2af" stroke="#5b544b" stroke-width="2.8"/>
        <polygon points="702.768,373.312 617.392,421.568 617.392,475.568 702.768,427.312" fill="#919c9a" stroke="#5b544b" stroke-width="2.8"/>
        <polygon points="574.704,300.928 702.768,373.312 617.392,421.568 489.32800000000003,349.18399999999997" fill="#c9d9d6" stroke="#56514a" stroke-width="3"/>
        <polygon points="551.888,340.94399999999996 597.8879999999999,366.94399999999996 577.648,378.384 531.648,352.384" fill="#edf3f0"/>
        <text x="596.048" y="357.248" text-anchor="middle" font-family="Arial" font-size="14" font-weight="700" fill="#332c23">ŁAZIENKA</text>
      </g>
      <g>
        <polygon points="617.392,421.568 676.0880000000001,454.744 676.0880000000001,508.744 617.392,475.568" fill="#b1aca4" stroke="#5b544b" stroke-width="2.8"/>
        <polygon points="878.856,340.136 676.0880000000001,454.744 676.0880000000001,508.744 878.856,394.136" fill="#9c9790" stroke="#5b544b" stroke-width="2.8"/>
        <polygon points="820.1600000000001,306.96000000000004 878.856,340.136 676.0880000000001,454.744 617.392,421.568" fill="#d8d2c8" stroke="#56514a" stroke-width="3"/>
        
        <text x="748.124" y="376.852" text-anchor="middle" font-family="Arial" font-size="14" font-weight="700" fill="#332c23">HOL</text>
      </g>
    <path d="M220 542 L500 382 L790 520" fill="none" stroke="#faf6ef" stroke-width="16" stroke-linecap="round" stroke-linejoin="round"/>
  </g>
  <g>
    <rect x="34" y="32" width="220" height="88" rx="24" fill="#282724" fill-opacity="0.75" stroke="#57524a"/>
    <text x="56" y="70" font-family="Georgia" font-size="26" fill="#f4e9d7">Soft Minimal</text>
    <text x="56" y="99" font-family="Arial" font-size="18" fill="#d6b178">34 m² · 2 pokoje</text>
    <rect x="825" y="40" width="122" height="122" rx="61" fill="#ca9d56"/>
    <text x="886" y="112" text-anchor="middle" font-family="Arial" font-size="38" font-weight="700" fill="#fff">3D</text>
    <rect x="362" y="34" width="278" height="36" rx="18" fill="#111" fill-opacity="0.54" stroke="#3a3732"/>
    <text x="501" y="58" text-anchor="middle" font-family="Arial" font-size="18" letter-spacing="1.2" fill="#ece1d1">PRZECIĄGNIJ, ABY OBRÓCIĆ</text>
  </g>
</svg>