
<svg xmlns="http://www.w3.org/2000/svg" viewBox="0 0 1200 820">
  <defs>
    <linearGradient id="bg" x1="0" x2="1" y1="0" y2="1"><stop stop-color="#1b1d1f"/><stop offset="1" stop-color="#332f2a"/></linearGradient>
    <linearGradient id="glow" x1="0" x2="1"><stop stop-color="#d3a862" stop-opacity="0"/><stop offset="0.5" stop-color="#d3a862" stop-opacity="0.18"/><stop offset="1" stop-color="#d3a862" stop-opacity="0"/></linearGradient>
    <filter id="shadow"><feDropShadow dx="0" dy="26" stdDeviation="18" flood-opacity="0.28"/></filter>
  </defs>
  <rect width="100%" height="100%" fill="url(#bg)"/>
  <rect width="100%" height="100%" fill="url(#glow)"/>
  <g filter="url(#shadow)">
    <polygon points="-208.1,466.7 467.6,623.8 617.7,866.8 -94.0,608.8" fill="#ece4d8" stroke="#faf6ef" stroke-width="18" stroke-linejoin="round"/>
    
      <g>
        <polygon points="320.0,220.0 61.4,354.9 61.4,292.9 320.0,158.0" fill="#b9beb6" stroke="#5b544b" stroke-width="2.8"/>
        <polygon points="672.7,404.0 414.0,538.9 414.0,476.9 672.7,342.0" fill="#9fa59c" stroke="#5b544b" stroke-width="2.8"/>
        <polygon points="320.0,158.0 672.7,342.0 414.0,476.9 61.4,292.9" fill="#dfe7dc" stroke="#56514a" stroke-width="3"/>
        <polygon points="147.9,314.9 249.1,367.7 210.4,387.8 109.2,335.0" fill="#cec2b3" opacity="0.9"/>
<polygon points="538.3,340.9 617.5,382.2 599.1,391.8 519.9,350.5" fill="#c5d0c7" opacity="0.9"/>
        <text x="367.0" y="319.5" text-anchor="middle" font-family="Arial, Helvetica, sans-serif" font-size="20" font-weight="700" fill="#332c23">SALON + ANEKS</text>
      </g>

      <g>
        <polygon points="672.7,404.0 472.8,508.3 472.8,446.3 672.7,342.0" fill="#b8b1a7" stroke="#5b544b" stroke-width="2.8"/>
        <polygon points="978.3,563.5 778.5,667.7 778.5,605.7 978.3,501.5" fill="#9e978e" stroke="#5b544b" stroke-width="2.8"/>
        <polygon points="672.7,342.0 978.3,501.5 778.5,605.7 472.8,446.3" fill="#e3ded0" stroke="#56514a" stroke-width="3"/>
        <polygon points="672.7,409.0 764.7,457.0 707.6,486.8 615.6,438.8" fill="#d8cdc1" opacity="0.9"/>
        <text x="725.6" y="475.9" text-anchor="middle" font-family="Arial, Helvetica, sans-serif" font-size="20" font-weight="700" fill="#332c23">SYPIALNIA</text>
      </g>

      <g>
        <polygon points="472.8,508.3 331.8,581.9 331.8,519.9 472.8,446.3" fill="#aeb9b4" stroke="#5b544b" stroke-width="2.8"/>
        <polygon points="625.6,588.0 484.6,661.6 484.6,599.6 625.6,526.0" fill="#95a09b" stroke="#5b544b" stroke-width="2.8"/>
        <polygon points="472.8,446.3 625.6,526.0 484.6,599.6 331.8,519.9" fill="#d3e0db" stroke="#56514a" stroke-width="3"/>
        <polygon points="422.9,561.5 489.1,596.1 463.4,609.5 397.1,574.9" fill="#d5e0db" opacity="0.9"/>
        <text x="478.7" y="524.9" text-anchor="middle" font-family="Arial, Helvetica, sans-serif" font-size="20" font-weight="700" fill="#332c23">ŁAZIENKA</text>
      </g>

      <g>
        <polygon points="625.6,588.0 484.6,661.6 484.6,599.6 625.6,526.0" fill="#b1aca4" stroke="#5b544b" stroke-width="2.8"/>
        <polygon points="778.5,667.7 637.4,741.3 637.4,679.3 778.5,605.7" fill="#9b968f" stroke="#5b544b" stroke-width="2.8"/>
        <polygon points="625.6,526.0 778.5,605.7 637.4,679.3 484.6,599.6" fill="#d8d2c8" stroke="#56514a" stroke-width="3"/>
        
        <text x="631.5" y="604.7" text-anchor="middle" font-family="Arial, Helvetica, sans-serif" font-size="20" font-weight="700" fill="#332c23">HOL</text>
      </g>

      <g>
        <polygon points="61.4,354.9 -103.2,440.8 -103.2,378.8 61.4,292.9" fill="#b8b1a7" stroke="#5b544b" stroke-width="2.8"/>
        <polygon points="414.0,538.9 249.5,624.8 249.5,562.8 414.0,476.9" fill="#9e978e" stroke="#5b544b" stroke-width="2.8"/>
        <polygon points="61.4,292.9 414.0,476.9 249.5,562.8 -103.2,378.8" fill="#e3ded0" stroke="#56514a" stroke-width="3"/>
        <polygon points="-25.9,407.4 55.0,449.7 23.8,466.0 -57.2,423.8" fill="#d4cabd" opacity="0.9"/>
        <text x="155.4" y="429.9" text-anchor="middle" font-family="Arial, Helvetica, sans-serif" font-size="20" font-weight="700" fill="#332c23">PRACA / SZAFA</text>
      </g>
    <path d="M -208.1 466.7 L 467.6 623.8 L 617.7 866.8" fill="none" stroke="#faf6ef" stroke-width="16" stroke-linecap="round" stroke-linejoin="round"/>
  </g>
  <g>
    <rect x="34" y="32" width="280" height="92" rx="24" fill="#282724" fill-opacity="0.78" stroke="#57524a"/>
    <text x="58" y="72" font-family="Georgia, 'Times New Roman', serif" font-size="30" fill="#f4e9d7">Soft Minimal</text>
    <text x="58" y="103" font-family="Arial, Helvetica, sans-serif" font-size="19" fill="#d6b178">34 m² · 2 pokoje</text>
    <rect x="1010" y="42" width="126" height="126" rx="63" fill="#ca9d56"/>
    <text x="1073" y="117" text-anchor="middle" font-family="Arial, Helvetica, sans-serif" font-size="40" font-weight="700" fill="#fff">3D</text>
    <rect x="430" y="34" width="340" height="40" rx="20" fill="#111" fill-opacity="0.54" stroke="#3a3732"/>
    <text x="600" y="60" text-anchor="middle" font-family="Arial, Helvetica, sans-serif" font-size="18" letter-spacing="1.1" fill="#ece1d1">PRZECIĄGNIJ, ABY OBRÓCIĆ</text>
  </g>
</svg>